<?xml version="1.0" standalone="no"?><!DOCTYPE svg PUBLIC "-//W3C//DTD SVG 1.1//EN" "http://www.w3.org/Graphics/SVG/1.1/DTD/svg11.dtd"><svg t="1723373366537" class="icon" viewBox="0 0 1120 1024" version="1.1" xmlns="http://www.w3.org/2000/svg" p-id="12731" xmlns:xlink="http://www.w3.org/1999/xlink" width="218.75" height="200"><path d="M32 256C32 166.4 102.4 96 192 96h768c89.6 0 160 70.4 160 160v512c0 89.6-70.4 160-160 160H192C102.4 928 32 857.6 32 768V256zM192 160c-51.2 0-96 44.8-96 96v512c0 51.2 44.8 96 96 96h768c51.2 0 96-44.8 96-96V256c0-51.2-44.8-96-96-96H192z m761.6 358.4c12.8 12.8 12.8 32 0 44.8l-192 192c-12.8 12.8-32 12.8-44.8 0s-12.8-32 0-44.8l192-192c6.4-6.4 32-6.4 44.8 0z m0 160c12.8 12.8 12.8 32 0 44.8l-32 32c-12.8 12.8-32 12.8-44.8 0s-12.8-32 0-44.8l32-32c6.4-6.4 32-6.4 44.8 0z" p-id="12732" fill="#0a66c2"></path></svg>